<svg id="visual" viewBox="0 0 900 600" width="900" height="600" xmlns="http://www.w3.org/2000/svg" xmlns:xlink="http://www.w3.org/1999/xlink" version="1.1"><rect width="900" height="600" fill="#001829"></rect><g><g transform="translate(779 270)"><path d="M0 -152.8L132.4 -76.4L132.4 76.4L0 152.8L-132.4 76.4L-132.4 -76.4Z" fill="none" stroke="#297EA6" stroke-width="2"></path></g><g transform="translate(87 340)"><path d="M0 -115L99.6 -57.5L99.6 57.5L0 115L-99.6 57.5L-99.6 -57.5Z" fill="none" stroke="#297EA6" stroke-width="2"></path></g><g transform="translate(436 570)"><path d="M0 -100L86.6 -50L86.6 50L0 100L-86.6 50L-86.6 -50Z" stroke="#297EA6" fill="none" stroke-width="2"></path></g><g transform="translate(452 112)"><path d="M0 -70L60.6 -35L60.6 35L0 70L-60.6 35L-60.6 -35Z" stroke="#297EA6" fill="none" stroke-width="2"></path></g><g transform="translate(31 8)"><path d="M0 -150L129.9 -75L129.9 75L0 150L-129.9 75L-129.9 -75Z" stroke="#297EA6" fill="none" stroke-width="2"></path></g><g transform="translate(886 560)"><path d="M0 -114L98.7 -57L98.7 57L0 114L-98.7 57L-98.7 -57Z" stroke="#297EA6" fill="none" stroke-width="2"></path></g></g></svg>